<?xml version="1.0" encoding="utf-8" standalone="no"?>
<!DOCTYPE svg PUBLIC "-//W3C//DTD SVG 1.1//EN"
  "http://www.w3.org/Graphics/SVG/1.1/DTD/svg11.dtd">
<!-- Created with matplotlib (http://matplotlib.org/) -->
<svg height="432pt" version="1.1" viewBox="0 0 576 432" width="576pt" xmlns="http://www.w3.org/2000/svg" xmlns:xlink="http://www.w3.org/1999/xlink">
 <defs>
  <style type="text/css">
*{stroke-linecap:butt;stroke-linejoin:round;stroke-miterlimit:100000;}
  </style>
 </defs>
 <g id="figure_1">
  <g id="patch_1">
   <path d="M 0 432 
L 576 432 
L 576 0 
L 0 0 
z
" style="fill:#ffffff;"/>
  </g>
  <g id="axes_1">
   <g id="patch_2">
    <path d="M 72 388.8 
L 518.4 388.8 
L 518.4 43.2 
L 72 43.2 
z
" style="fill:#ffffff;"/>
   </g>
   <g id="line2d_1">
    <path clip-path="url(#p09b6b49f9f)" d="M 76.583886 81.488047 
L 261.718253 81.583283 
L 265.657282 81.888868 
L 266.094952 82.195394 
L 266.532622 83.094954 
L 266.970292 84.586602 
L 267.407962 87.176751 
L 267.845631 90.555714 
L 268.283301 91.822157 
L 268.720971 91.068547 
L 269.158641 89.623414 
L 269.596311 86.996648 
L 270.033981 85.868698 
L 270.471651 87.202401 
L 270.909321 87.879204 
L 271.346991 87.874151 
L 271.78466 87.730745 
L 272.66 87.170432 
L 273.97301 86.777391 
L 274.41068 86.404409 
L 275.72369 84.492735 
L 277.036699 82.708548 
L 277.912039 82.640435 
L 278.787379 82.352155 
L 279.662719 82.408766 
L 281.851068 83.369581 
L 282.726408 83.566834 
L 283.164078 84.618862 
L 283.601748 86.495425 
L 284.477088 96.508316 
L 285.790097 115.871487 
L 286.227767 118.375172 
L 286.665437 117.119515 
L 287.103107 111.329881 
L 287.540777 109.155514 
L 287.978447 111.605812 
L 288.416117 110.369918 
L 288.853786 104.665178 
L 289.291456 102.365132 
L 289.729126 104.587443 
L 290.166796 108.414496 
L 290.604466 113.413273 
L 291.042136 112.342458 
L 291.479806 104.186078 
L 291.917476 99.719203 
L 292.355146 101.303151 
L 292.792816 100.665266 
L 293.230485 97.535889 
L 293.668155 95.242706 
L 294.105825 94.152142 
L 294.543495 92.495829 
L 295.418835 87.97623 
L 296.294175 85.168416 
L 297.169515 83.374179 
L 298.044854 82.44007 
L 298.920194 81.917803 
L 300.233204 81.539539 
L 301.546214 81.488047 
L 317.30233 81.572297 
L 317.74 81.723358 
L 318.17767 82.790977 
L 318.61534 84.36287 
L 319.053009 85.0612 
L 319.490679 85.190843 
L 319.928349 85.74505 
L 320.366019 86.584658 
L 320.803689 86.207009 
L 321.241359 84.761243 
L 321.679029 83.90651 
L 322.116699 83.63862 
L 322.554369 84.655529 
L 322.992038 86.406121 
L 323.429708 86.707216 
L 324.742718 84.567295 
L 325.180388 84.532582 
L 325.618058 85.028935 
L 326.055728 84.960907 
L 326.493398 84.461071 
L 326.931068 84.275569 
L 327.368737 84.338909 
L 327.806407 84.080534 
L 328.244077 83.562346 
L 328.681747 83.302191 
L 329.119417 83.247242 
L 330.432427 82.676116 
L 331.745436 82.608143 
L 332.183106 82.960054 
L 332.620776 83.565237 
L 333.058446 83.899801 
L 333.496116 84.059979 
L 333.933786 85.099811 
L 334.371456 86.570758 
L 335.246796 93.241005 
L 336.559805 106.385219 
L 336.997475 109.759096 
L 337.435145 109.684769 
L 337.872815 107.29884 
L 338.310485 103.740322 
L 338.748155 98.826121 
L 339.185825 96.298948 
L 339.623495 95.936179 
L 340.061164 97.087057 
L 340.498834 99.072884 
L 340.936504 98.092502 
L 341.374174 94.884515 
L 341.811844 93.335383 
L 342.249514 93.145982 
L 342.687184 94.538392 
L 343.124854 96.715481 
L 343.562524 97.307789 
L 344.000194 96.985871 
L 344.437863 96.071863 
L 346.188543 90.341336 
L 346.626213 88.780887 
L 347.063883 87.717469 
L 347.501553 87.015831 
L 347.939223 86.001603 
L 348.376893 84.695254 
L 348.814562 83.777383 
L 349.252232 83.138704 
L 349.689902 82.886593 
L 351.440582 82.805786 
L 353.191261 82.18779 
L 354.941941 81.654166 
L 358.00563 81.488047 
L 364.133009 81.519854 
L 365.446019 82.02089 
L 368.947378 83.390876 
L 369.822718 83.554535 
L 370.260387 83.58495 
L 370.698057 83.336548 
L 371.573397 82.612891 
L 372.011067 82.320936 
L 372.448737 82.506093 
L 372.886407 82.907263 
L 373.324077 82.955877 
L 373.761747 82.841342 
L 374.199416 83.682613 
L 374.637086 84.84185 
L 375.512426 91.464983 
L 376.825436 119.640825 
L 377.263106 127.341965 
L 377.700776 128.284648 
L 378.138446 126.446105 
L 379.013785 124.363516 
L 379.451455 117.309158 
L 379.889125 104.708993 
L 380.326795 101.598195 
L 380.764465 104.371661 
L 381.639805 118.784484 
L 382.077475 121.509417 
L 382.515145 122.553585 
L 383.390484 126.768554 
L 383.828154 126.08452 
L 384.265824 124.11326 
L 384.703494 120.419259 
L 386.016504 104.930995 
L 386.454174 105.884509 
L 386.891844 109.469218 
L 387.329513 111.37275 
L 387.767183 112.649447 
L 388.204853 112.023414 
L 389.517863 107.93571 
L 389.955533 105.678466 
L 390.393203 102.837193 
L 390.830873 102.963161 
L 391.268542 104.276719 
L 391.706212 104.213113 
L 392.143882 103.618517 
L 392.581552 101.344561 
L 393.019222 98.078846 
L 393.456892 97.739664 
L 393.894562 98.613221 
L 394.769902 102.224396 
L 395.645241 108.18658 
L 396.520581 120.525382 
L 398.271261 187.720274 
L 398.708931 195.751651 
L 400.02194 212.308441 
L 400.45961 198.55433 
L 401.33495 153.798256 
L 401.77262 132.967578 
L 402.21029 131.483106 
L 402.64796 137.862418 
L 403.5233 172.944271 
L 403.96097 176.245368 
L 404.836309 174.953401 
L 405.273979 174.479095 
L 405.711649 174.679147 
L 406.149319 175.100353 
L 407.024659 177.062537 
L 407.462329 170.801722 
L 407.899999 161.333833 
L 408.337668 162.684472 
L 408.775338 167.459632 
L 409.213008 167.954391 
L 409.650678 167.1433 
L 410.088348 160.196615 
L 410.963688 139.006273 
L 411.401358 125.076824 
L 411.839028 117.801277 
L 412.276698 112.916177 
L 412.714367 111.828003 
L 413.152037 112.014503 
L 414.027377 120.248269 
L 414.465047 119.884403 
L 414.902717 118.127708 
L 415.340387 114.139725 
L 415.778057 108.921159 
L 416.215727 106.601898 
L 416.653397 105.221718 
L 417.091066 102.450248 
L 417.966406 96.062975 
L 418.404076 93.204814 
L 418.841746 91.817807 
L 419.279416 90.880337 
L 420.592426 86.546354 
L 421.030095 85.09781 
L 421.467765 84.412679 
L 422.780775 83.049416 
L 425.406794 81.879115 
L 427.157474 82.178335 
L 428.908154 81.512278 
L 431.096503 81.488047 
L 450.353979 81.577953 
L 451.666988 81.800804 
L 452.979998 81.811035 
L 453.855338 81.715643 
L 454.730678 81.772102 
L 455.606017 81.99609 
L 456.043687 82.166612 
L 456.919027 83.409121 
L 457.794367 85.395059 
L 458.669707 91.060645 
L 459.545046 94.78393 
L 460.420386 102.949295 
L 461.295726 107.566689 
L 461.733396 106.683243 
L 463.484076 101.179279 
L 463.921745 99.119244 
L 464.359415 95.739921 
L 464.797085 91.407804 
L 465.234755 92.20527 
L 465.672425 93.611216 
L 466.547765 107.525117 
L 466.985435 108.013666 
L 467.423105 107.885877 
L 467.860775 103.766202 
L 468.298444 98.243359 
L 468.736114 98.408492 
L 469.173784 99.293203 
L 470.049124 104.161758 
L 470.924464 106.303163 
L 471.362134 106.251017 
L 471.799804 106.086713 
L 472.675143 106.401148 
L 473.550483 103.256851 
L 474.863493 95.63355 
L 475.301163 92.761512 
L 475.738833 92.381039 
L 476.176503 92.267977 
L 477.051842 93.787861 
L 478.802522 100.069958 
L 479.677862 105.760113 
L 481.428541 123.03203 
L 482.303881 136.521446 
L 483.179221 144.445527 
L 484.054561 164.099475 
L 484.929901 169.487244 
L 485.80524 167.061281 
L 486.68058 161.615418 
L 487.55592 139.869473 
L 488.43126 115.497122 
L 489.306599 135.808334 
L 490.181939 185.727043 
L 490.619609 171.515775 
L 491.932619 117.03429 
L 492.370289 117.084139 
L 492.807959 118.404163 
L 493.683298 122.21247 
L 494.558638 138.56259 
L 494.996308 138.057407 
L 495.433978 137.185932 
L 496.309318 128.875549 
L 497.184658 125.790314 
L 498.059997 125.973202 
L 498.935337 121.853959 
L 499.810677 116.068323 
L 500.686017 106.51693 
L 502.436696 110.464018 
L 503.312036 105.770715 
L 504.187376 104.110092 
L 505.062716 101.086033 
L 505.938056 104.057766 
L 506.813395 101.516572 
L 508.126405 93.220827 
L 508.564075 91.168796 
L 509.877085 88.747167 
L 510.752424 86.985616 
L 511.190094 86.147924 
L 512.065434 88.294094 
L 512.940774 89.199978 
L 513.816114 89.585543 
L 513.816114 89.585543 
" style="fill:none;stroke:#0000ff;stroke-linecap:square;"/>
   </g>
   <g id="line2d_2">
    <path clip-path="url(#p09b6b49f9f)" d="M 76.583886 81.488047 
L 260.842913 81.488047 
L 261.280583 81.656883 
L 261.718253 82.044069 
L 262.155923 82.214576 
L 262.593593 82.107866 
L 263.031263 82.183126 
L 264.344272 83.023713 
L 264.781942 83.119546 
L 265.219612 83.023229 
L 265.657282 83.656944 
L 266.094952 85.082874 
L 266.532622 88.618266 
L 266.970292 93.434656 
L 267.845631 109.304115 
L 268.283301 112.478279 
L 268.720971 110.592317 
L 269.158641 106.949216 
L 269.596311 100.156726 
L 270.033981 97.105108 
L 270.471651 100.701625 
L 270.909321 102.474959 
L 271.346991 102.461815 
L 271.78466 102.088228 
L 272.66 100.617156 
L 273.97301 99.572597 
L 274.41068 98.569692 
L 277.036699 87.189251 
L 277.474369 87.221349 
L 277.912039 86.925229 
L 278.349709 86.212167 
L 278.787379 85.757781 
L 279.225049 85.647415 
L 279.662719 85.994041 
L 280.538058 87.518622 
L 281.413398 88.783385 
L 281.851068 89.575345 
L 282.288738 90.060897 
L 282.726408 90.238658 
L 283.164078 93.53084 
L 283.601748 98.815577 
L 284.477088 124.101081 
L 285.790097 171.301847 
L 286.227767 177.292276 
L 286.665437 174.291833 
L 287.103107 160.358944 
L 287.540777 155.087586 
L 287.978447 161.026457 
L 288.416117 158.034122 
L 288.853786 144.143489 
L 289.291456 138.511184 
L 289.729126 143.953405 
L 290.166796 153.286717 
L 290.604466 165.390609 
L 291.042136 162.806867 
L 291.479806 142.971639 
L 291.917476 132.012848 
L 292.355146 135.905319 
L 292.792816 134.33857 
L 293.230485 126.636298 
L 293.668155 120.973638 
L 294.105825 118.273317 
L 294.543495 114.158518 
L 295.418835 102.727092 
L 296.294175 95.135382 
L 297.169515 89.591023 
L 298.044854 86.123125 
L 298.920194 83.798616 
L 300.233204 81.792398 
L 300.670874 81.488047 
L 316.86466 81.488047 
L 317.30233 81.981431 
L 317.74 82.812214 
L 318.61534 92.760561 
L 319.053009 94.826968 
L 319.490679 95.199638 
L 319.928349 96.762343 
L 320.366019 99.0559 
L 320.803689 98.033616 
L 321.241359 93.952514 
L 321.679029 91.341727 
L 322.116699 90.475659 
L 322.554369 93.639868 
L 322.992038 98.574323 
L 323.429708 99.384829 
L 324.742718 93.376972 
L 325.180388 93.27304 
L 325.618058 94.733748 
L 326.055728 94.536561 
L 326.493398 93.057994 
L 326.931068 92.493967 
L 327.368737 92.687598 
L 327.806407 91.890426 
L 328.244077 90.223764 
L 328.681747 89.344342 
L 329.119417 89.154198 
L 329.557087 88.520167 
L 329.994757 87.500861 
L 330.432427 87.064048 
L 330.870097 87.096498 
L 331.745436 86.798601 
L 332.183106 88.131519 
L 332.620776 90.233358 
L 333.058446 91.320368 
L 333.496116 91.826136 
L 333.933786 94.938274 
L 334.371456 99.018511 
L 335.246796 116.012218 
L 336.559805 148.344288 
L 336.997475 156.552825 
L 337.435145 156.372471 
L 337.872815 150.571366 
L 338.310485 141.880689 
L 338.748155 129.815158 
L 339.185825 123.584115 
L 339.623495 122.688012 
L 340.061164 125.529348 
L 340.498834 130.422608 
L 340.936504 128.00825 
L 341.374174 120.087356 
L 341.811844 116.246684 
L 342.249514 115.776084 
L 342.687184 119.230368 
L 343.124854 124.612464 
L 343.562524 126.073814 
L 344.000194 125.27971 
L 344.437863 123.023231 
L 346.188543 108.764238 
L 346.626213 104.80179 
L 347.063883 102.053588 
L 347.501553 100.207657 
L 347.939223 97.471435 
L 348.814562 90.927723 
L 349.252232 88.773636 
L 349.689902 87.861247 
L 351.002912 87.959561 
L 351.440582 87.559358 
L 352.315922 86.233193 
L 353.628931 84.40184 
L 354.941941 82.439571 
L 355.817281 81.946495 
L 356.254951 81.611833 
L 356.692621 81.488047 
L 363.695339 81.563452 
L 364.133009 81.677117 
L 364.570679 82.425088 
L 365.883688 85.102229 
L 366.759028 86.668311 
L 368.072038 88.27852 
L 368.509708 89.128835 
L 369.385048 90.011837 
L 370.260387 90.298678 
L 370.698057 89.462408 
L 371.573397 86.817281 
L 372.011067 85.625869 
L 372.448737 86.391891 
L 372.886407 87.937682 
L 373.324077 88.116252 
L 373.761747 87.692803 
L 374.637086 94.189284 
L 375.512426 111.585363 
L 376.387766 159.541125 
L 377.263106 198.477285 
L 377.700776 200.678799 
L 378.138446 196.380478 
L 379.013785 191.488781 
L 379.451455 174.7455 
L 379.889125 144.250622 
L 380.326795 136.629613 
L 380.764465 143.425652 
L 381.639805 178.268616 
L 382.077475 184.746351 
L 382.515145 187.218165 
L 383.390484 197.135705 
L 383.828154 195.532898 
L 384.265824 190.899355 
L 384.703494 182.159481 
L 386.016504 144.793339 
L 386.454174 147.122469 
L 386.891844 155.849309 
L 387.329513 160.46267 
L 387.767183 163.548122 
L 388.204853 162.03606 
L 389.517863 152.121997 
L 389.955533 146.619435 
L 390.393203 139.668474 
L 390.830873 139.97718 
L 391.268542 143.193398 
L 391.706212 143.037785 
L 392.143882 141.582474 
L 392.581552 136.006988 
L 393.019222 127.974601 
L 393.456892 127.138671 
L 393.894562 129.290937 
L 394.769902 138.166034 
L 395.645241 152.732387 
L 396.520581 182.411577 
L 397.833591 296.721375 
L 398.271261 328.727033 
L 398.708931 344.38203 
L 400.02194 375.434577 
L 400.45961 349.75367 
L 401.77262 211.539849 
L 402.21029 208.110625 
L 402.64796 222.755758 
L 403.5233 298.903518 
L 403.96097 305.681729 
L 404.398639 304.14855 
L 405.273979 302.063281 
L 405.711649 302.47407 
L 406.149319 303.338183 
L 407.024659 307.349368 
L 407.462329 294.46855 
L 407.899999 274.534152 
L 408.337668 277.411454 
L 408.775338 287.494534 
L 409.213008 288.531269 
L 409.650678 286.830896 
L 410.088348 272.102843 
L 410.963688 225.356321 
L 411.401358 193.166943 
L 411.839028 175.921915 
L 412.276698 164.191825 
L 412.714367 161.563724 
L 413.152037 162.014524 
L 414.027377 181.753165 
L 414.465047 180.888017 
L 414.902717 176.701579 
L 415.340387 167.140462 
L 415.778057 154.518277 
L 416.215727 148.872747 
L 416.653397 145.503808 
L 417.091066 138.7199 
L 417.966406 123.001275 
L 418.404076 115.922291 
L 418.841746 112.467414 
L 419.279416 110.120051 
L 420.154756 102.622563 
L 421.030095 94.932509 
L 421.467765 92.911737 
L 422.780775 88.455281 
L 425.406794 83.608818 
L 425.844464 83.910075 
L 426.282134 84.465781 
L 427.157474 85.007447 
L 427.595144 84.236175 
L 428.032814 83.108329 
L 428.908154 81.632402 
L 429.345824 81.488047 
L 449.916309 81.488047 
L 451.229318 82.926172 
L 452.104658 83.416019 
L 452.542328 83.599727 
L 453.417668 82.832907 
L 454.293008 82.771283 
L 455.168347 83.398655 
L 456.043687 84.955371 
L 457.356697 92.938872 
L 457.794367 95.780888 
L 458.669707 110.572502 
L 459.545046 119.83837 
L 460.420386 139.943202 
L 461.295726 151.223702 
L 461.733396 149.071096 
L 463.484076 135.601157 
L 463.921745 130.536711 
L 464.359415 122.203023 
L 464.797085 111.44227 
L 465.234755 113.434395 
L 465.672425 116.931585 
L 466.547765 151.122474 
L 466.985435 152.311697 
L 467.423105 152.000723 
L 467.860775 141.944047 
L 468.298444 128.379933 
L 468.736114 128.786717 
L 469.173784 130.964818 
L 470.049124 142.912136 
L 470.924464 148.144117 
L 471.362134 148.016899 
L 471.799804 147.615989 
L 472.675143 148.383142 
L 473.550483 140.696734 
L 474.863493 121.940099 
L 475.301163 114.81996 
L 475.738833 113.872541 
L 476.176503 113.59074 
L 477.051842 117.369937 
L 478.802522 132.875397 
L 479.677862 146.818785 
L 481.428541 188.348807 
L 482.303881 219.697149 
L 483.179221 237.615305 
L 484.054561 280.41389 
L 484.929901 291.733753 
L 485.80524 286.658728 
L 486.68058 275.134942 
L 487.11825 253.946708 
L 488.43126 170.403472 
L 489.306599 218.066283 
L 489.744269 280.507278 
L 490.181939 324.781381 
L 490.619609 295.949721 
L 491.932619 174.087899 
L 492.370289 174.207187 
L 492.807959 177.361456 
L 493.683298 186.4113 
L 494.558638 224.348528 
L 494.996308 223.199619 
L 495.433978 221.214101 
L 496.309318 202.056203 
L 497.184658 194.842719 
L 497.622328 194.98413 
L 498.059997 195.271812 
L 498.935337 185.562614 
L 499.810677 171.773927 
L 500.686017 148.665538 
L 502.436696 158.262183 
L 503.312036 146.84467 
L 504.187376 142.785715 
L 505.062716 135.372167 
L 505.938056 142.657671 
L 506.813395 136.429263 
L 508.126405 115.96208 
L 508.564075 110.843647 
L 509.439415 107.029387 
L 511.190094 97.872379 
L 512.065434 103.549948 
L 512.940774 105.872663 
L 513.816114 106.853133 
L 513.816114 106.853133 
" style="fill:none;stroke:#008000;stroke-linecap:square;"/>
   </g>
   <g id="line2d_3">
    <path clip-path="url(#p09b6b49f9f)" d="M 76.583886 82.001196 
L 77.021556 81.98515 
L 77.459226 81.970066 
L 78.334566 82.896365 
L 79.209906 81.967788 
L 80.085245 81.520773 
L 81.398255 81.696739 
L 82.273595 81.826307 
L 82.711265 81.9364 
L 84.899614 81.761623 
L 85.774954 81.759697 
L 86.650294 81.597748 
L 87.525634 81.488047 
L 139.608351 81.504233 
L 140.921361 81.730996 
L 145.29806 81.808813 
L 148.799419 81.910307 
L 150.987769 81.969136 
L 153.613788 82.073782 
L 158.865827 82.568958 
L 161.054176 82.417828 
L 163.242526 82.52346 
L 165.868545 82.738132 
L 168.494565 82.815635 
L 170.245244 83.153135 
L 172.871264 83.942987 
L 174.621943 84.241425 
L 175.497283 84.219743 
L 177.247963 83.886226 
L 178.998642 83.908624 
L 182.062332 84.376908 
L 185.563691 84.700424 
L 186.8767 85.155741 
L 188.62738 86.09739 
L 190.37806 87.100474 
L 191.691069 87.62064 
L 192.566409 87.734387 
L 193.441749 87.645389 
L 196.067768 87.165195 
L 197.380778 87.232043 
L 200.882137 87.918451 
L 203.070487 88.261316 
L 204.383496 88.609459 
L 206.571846 89.902131 
L 207.884855 91.029409 
L 210.510875 93.233425 
L 211.823885 93.866139 
L 212.699224 94.03669 
L 213.574564 94.027872 
L 214.887574 93.804144 
L 216.200584 93.461799 
L 217.513593 93.370604 
L 219.264273 93.74293 
L 221.890292 94.582678 
L 225.391651 95.678202 
L 226.704661 96.374616 
L 228.017671 97.238004 
L 231.08136 99.890907 
L 233.707379 102.070057 
L 235.020389 102.88959 
L 235.895729 103.259234 
L 237.646408 103.60304 
L 238.959418 103.589858 
L 240.272428 103.609026 
L 241.585438 103.855236 
L 243.336117 104.488887 
L 248.150486 106.70602 
L 250.776505 107.43406 
L 252.964855 108.047193 
L 255.153204 108.893938 
L 256.903884 109.816692 
L 258.654564 111.087001 
L 259.967573 112.159931 
L 262.593593 114.310973 
L 264.781942 115.761534 
L 266.094952 116.4495 
L 271.346991 118.765411 
L 272.22233 118.832464 
L 273.97301 118.722773 
L 275.72369 118.180747 
L 280.975728 116.375045 
L 282.726408 116.046984 
L 284.039418 115.961353 
L 285.790097 116.104671 
L 286.665437 116.277277 
L 288.416117 116.996771 
L 290.166796 118.178414 
L 294.105825 121.124737 
L 295.418835 121.742405 
L 296.731845 122.080918 
L 297.607184 122.027708 
L 298.920194 121.771131 
L 300.233204 121.205544 
L 301.983883 120.088664 
L 309.424272 114.791089 
L 312.050291 113.398914 
L 313.800971 112.61878 
L 316.42699 111.534096 
L 319.053009 110.405379 
L 328.244077 105.78677 
L 332.620776 103.551149 
L 336.559805 101.854897 
L 361.944659 92.947935 
L 365.008349 92.147962 
L 371.573397 90.798542 
L 376.825436 89.373417 
L 378.138446 89.028294 
L 381.202135 88.294175 
L 385.578834 87.605816 
L 388.204853 87.330678 
L 392.581552 86.939739 
L 396.958251 86.693529 
L 399.146601 86.367385 
L 403.96097 85.557951 
L 407.024659 85.238828 
L 409.213008 84.983434 
L 414.027377 84.724103 
L 419.717086 84.784304 
L 421.467765 84.892646 
L 424.531455 84.943887 
L 429.345824 84.151204 
L 430.658833 83.902064 
L 436.348542 83.468558 
L 438.974561 83.57565 
L 440.725241 83.538194 
L 445.97728 83.642681 
L 449.916309 83.981123 
L 453.417668 83.926285 
L 456.043687 83.644697 
L 459.545046 83.226232 
L 472.675143 82.674084 
L 476.614172 82.782077 
L 479.240192 82.959718 
L 484.054561 83.218288 
L 486.68058 83.124272 
L 489.744269 82.805699 
L 491.494949 82.643693 
L 499.810677 82.129419 
L 510.314755 82.193521 
L 512.503104 82.337679 
L 513.816114 82.481902 
L 513.816114 82.481902 
" style="fill:none;stroke:#ff0000;stroke-linecap:square;"/>
   </g>
   <g id="line2d_4">
    <path clip-path="url(#p09b6b49f9f)" d="M 76.583886 82.052488 
L 77.021556 82.034839 
L 77.459226 82.018249 
L 78.334566 83.037028 
L 79.209906 82.015742 
L 80.085245 81.524045 
L 81.398255 81.717605 
L 82.273595 81.860124 
L 82.711265 81.981219 
L 84.899614 81.788974 
L 85.774954 81.786855 
L 86.650294 81.608717 
L 87.087964 81.488047 
L 139.608351 81.505852 
L 140.483691 81.737629 
L 145.73573 81.84088 
L 148.361749 81.917214 
L 150.550099 82.017225 
L 153.176118 82.079384 
L 158.865827 82.67695 
L 161.054176 82.510733 
L 162.804856 82.574008 
L 165.868545 82.863007 
L 168.494565 82.948243 
L 170.245244 83.319407 
L 172.871264 84.187966 
L 174.621943 84.516116 
L 175.497283 84.492275 
L 177.247963 84.125553 
L 178.998642 84.150181 
L 182.062332 84.665082 
L 185.563691 85.02078 
L 186.8767 85.521361 
L 188.62738 86.556508 
L 190.37806 87.659023 
L 191.691069 88.230683 
L 192.566409 88.355684 
L 193.441749 88.25788 
L 196.067768 87.730154 
L 196.943108 87.749326 
L 198.256118 88.023203 
L 199.569127 88.375606 
L 204.383496 89.31726 
L 206.571846 90.737477 
L 207.884855 91.975746 
L 210.510875 94.396132 
L 211.386215 94.917865 
L 212.261554 95.226183 
L 213.136894 95.302936 
L 214.449904 95.131058 
L 217.075923 94.542355 
L 217.951263 94.633277 
L 219.264273 94.955535 
L 221.890292 95.877426 
L 225.391651 97.079929 
L 226.704661 97.844239 
L 228.017671 98.791686 
L 231.08136 101.702057 
L 233.707379 104.091775 
L 235.020389 104.990284 
L 235.895729 105.39551 
L 237.646408 105.772389 
L 238.521748 105.808936 
L 239.834758 105.749236 
L 241.147768 105.912887 
L 242.898447 106.522678 
L 248.588156 109.325063 
L 251.214175 110.088713 
L 253.402525 110.807582 
L 255.590874 111.80535 
L 257.341554 112.899543 
L 259.529903 114.710257 
L 261.718253 116.760602 
L 263.468932 118.176246 
L 265.219612 119.36977 
L 266.970292 120.271453 
L 270.471651 122.080139 
L 271.78466 122.445833 
L 273.53534 122.408612 
L 274.41068 122.205757 
L 281.413398 119.649663 
L 283.164078 119.348521 
L 284.477088 119.322283 
L 286.227767 119.528932 
L 287.103107 119.834037 
L 288.416117 120.438279 
L 290.166796 121.730619 
L 294.105825 124.951863 
L 295.418835 125.626967 
L 296.294175 125.914697 
L 297.169515 126.004558 
L 298.920194 125.658362 
L 299.795534 125.287204 
L 301.108544 124.446141 
L 302.859223 123.091594 
L 306.360582 120.226727 
L 309.424272 118.025295 
L 312.050291 116.501828 
L 313.800971 115.64797 
L 316.42699 114.460603 
L 318.61534 113.444917 
L 323.429708 110.902704 
L 327.368737 108.654074 
L 333.058446 105.494462 
L 336.122135 104.040195 
L 342.687184 101.371874 
L 345.313203 100.333433 
L 349.689902 98.730073 
L 352.753592 97.542815 
L 359.75631 94.809616 
L 365.446019 93.111593 
L 370.260387 92.064118 
L 373.324077 91.200402 
L 376.825436 90.156631 
L 377.700776 89.934367 
L 379.451455 89.424497 
L 386.891844 88.034463 
L 395.207572 87.35513 
L 396.520581 87.26428 
L 399.146601 86.853283 
L 403.96097 85.963526 
L 407.024659 85.612704 
L 409.213008 85.331928 
L 414.027377 85.046814 
L 419.279416 85.109208 
L 421.467765 85.232116 
L 424.531455 85.288451 
L 429.345824 84.416915 
L 430.658833 84.142969 
L 436.348542 83.666274 
L 438.974561 83.784038 
L 440.725241 83.742849 
L 445.53961 83.807693 
L 449.916309 84.2299 
L 453.417668 84.169601 
L 456.043687 83.859965 
L 458.669707 83.536234 
L 460.420386 83.358016 
L 468.298444 82.863007 
L 473.112813 82.792568 
L 476.176503 82.863007 
L 479.677862 83.141939 
L 484.054561 83.391057 
L 486.68058 83.287666 
L 489.744269 82.937316 
L 491.494949 82.759143 
L 499.810677 82.193521 
L 510.314755 82.264026 
L 512.503104 82.422581 
L 513.816114 82.581203 
L 513.816114 82.581203 
" style="fill:none;stroke:#00bfbf;stroke-linecap:square;"/>
   </g>
   <g id="line2d_5">
    <path clip-path="url(#p09b6b49f9f)" d="M 76.583886 82.069585 
L 77.021556 82.051401 
L 77.459226 82.034308 
L 78.334566 83.083908 
L 79.209906 82.031726 
L 80.085245 81.525136 
L 81.398255 81.72456 
L 82.273595 81.871395 
L 82.711265 81.996157 
L 84.899614 81.798091 
L 85.774954 81.795908 
L 86.650294 81.612373 
L 87.087964 81.488047 
L 139.608351 81.506391 
L 140.483691 81.74519 
L 145.29806 81.851569 
L 148.361749 81.930215 
L 150.550099 82.033254 
L 153.176118 82.097295 
L 158.865827 82.712943 
L 161.054176 82.541698 
L 162.804856 82.606888 
L 165.868545 82.904627 
L 168.494565 82.99244 
L 170.245244 83.374822 
L 172.871264 84.269605 
L 174.621943 84.607653 
L 175.497283 84.583093 
L 177.247963 84.205309 
L 178.998642 84.23068 
L 182.062332 84.761111 
L 185.126021 85.00084 
L 186.43903 85.448666 
L 187.75204 86.126921 
L 190.815729 88.079315 
L 191.691069 88.433901 
L 192.566409 88.562648 
L 193.441749 88.461913 
L 196.067768 87.918362 
L 196.943108 87.93811 
L 197.818448 88.102119 
L 200.444467 88.716996 
L 202.632817 89.069105 
L 203.945826 89.385212 
L 204.821166 89.82254 
L 206.571846 91.015683 
L 207.884855 92.290878 
L 210.510875 94.783226 
L 211.386215 95.320433 
L 212.261554 95.637889 
L 213.136894 95.716917 
L 214.449904 95.539945 
L 217.075923 94.933787 
L 217.951263 95.027406 
L 219.264273 95.35922 
L 221.890292 96.308419 
L 225.391651 97.546478 
L 226.704661 98.333351 
L 228.017671 99.308726 
L 231.08136 102.304609 
L 233.707379 104.764226 
L 235.020389 105.688941 
L 235.895729 106.105973 
L 237.646408 106.493825 
L 238.521748 106.531435 
L 239.834758 106.469998 
L 241.147768 106.638411 
L 242.898447 107.265937 
L 248.588156 110.149582 
L 251.214175 110.935308 
L 253.402525 111.674929 
L 255.590874 112.70146 
L 257.341554 113.827135 
L 259.529903 115.689815 
L 261.718253 117.798801 
L 263.468932 119.254808 
L 265.219612 120.482283 
L 266.970292 121.409566 
L 270.471651 123.269476 
L 271.78466 123.645507 
L 273.53534 123.607234 
L 274.41068 123.398646 
L 281.413398 120.770126 
L 283.164078 120.46043 
L 284.477088 120.433446 
L 286.227767 120.645966 
L 287.103107 120.959736 
L 288.416117 121.581123 
L 290.166796 122.910071 
L 294.105825 126.222186 
L 295.418835 126.916266 
L 296.294175 127.212078 
L 297.169515 127.304461 
L 298.920194 126.948544 
L 299.795534 126.566956 
L 301.108544 125.702233 
L 302.859223 124.309504 
L 306.360582 121.36357 
L 309.424272 119.099558 
L 312.050291 117.532638 
L 313.363301 116.885901 
L 315.11398 116.062718 
L 319.053009 114.16175 
L 328.244077 108.956654 
L 332.620776 106.435288 
L 336.122135 104.71114 
L 342.687184 101.964747 
L 345.313203 100.895826 
L 349.689902 99.245299 
L 352.753592 98.023033 
L 359.75631 95.208974 
L 365.446019 93.460532 
L 370.260387 92.381883 
L 373.324077 91.492421 
L 376.825436 90.417489 
L 377.700776 90.188582 
L 379.013785 89.764369 
L 384.703494 88.537844 
L 392.581552 87.663141 
L 396.958251 87.384411 
L 399.146601 87.015168 
L 403.96097 86.098661 
L 407.024659 85.737281 
L 409.213008 85.448051 
L 414.027377 85.154348 
L 418.841746 85.200528 
L 424.531455 85.403265 
L 429.345824 84.50546 
L 430.658833 84.22325 
L 436.348542 83.732166 
L 438.974561 83.853485 
L 440.725241 83.811054 
L 445.53961 83.877855 
L 449.916309 84.312804 
L 453.417668 84.250686 
L 456.043687 83.931705 
L 458.232037 83.634478 
L 468.298444 82.904627 
L 473.112813 82.832057 
L 476.176503 82.904627 
L 479.677862 83.191991 
L 484.054561 83.448636 
L 486.68058 83.342121 
L 489.744269 82.981182 
L 491.494949 82.797622 
L 499.810677 82.214887 
L 510.314755 82.287526 
L 512.503104 82.450879 
L 513.816114 82.6143 
L 513.816114 82.6143 
" style="fill:none;stroke:#bf00bf;stroke-linecap:square;"/>
   </g>
   <g id="patch_3">
    <path d="M 72 43.2 
L 518.4 43.2 
" style="fill:none;stroke:#000000;stroke-linecap:square;stroke-linejoin:miter;"/>
   </g>
   <g id="patch_4">
    <path d="M 518.4 388.8 
L 518.4 43.2 
" style="fill:none;stroke:#000000;stroke-linecap:square;stroke-linejoin:miter;"/>
   </g>
   <g id="patch_5">
    <path d="M 72 388.8 
L 518.4 388.8 
" style="fill:none;stroke:#000000;stroke-linecap:square;stroke-linejoin:miter;"/>
   </g>
   <g id="patch_6">
    <path d="M 72 388.8 
L 72 43.2 
" style="fill:none;stroke:#000000;stroke-linecap:square;stroke-linejoin:miter;"/>
   </g>
   <g id="matplotlib.axis_1">
    <g id="xtick_1">
     <g id="line2d_6">
      <defs>
       <path d="M 0 0 
L 0 -4 
" id="m021987d9c0" style="stroke:#000000;stroke-width:0.5;"/>
      </defs>
      <g>
       <use style="stroke:#000000;stroke-width:0.5;" x="120.307109005" xlink:href="#m021987d9c0" y="388.8"/>
      </g>
     </g>
     <g id="line2d_7">
      <defs>
       <path d="M 0 0 
L 0 4 
" id="m9bdfb5c8a3" style="stroke:#000000;stroke-width:0.5;"/>
      </defs>
      <g>
       <use style="stroke:#000000;stroke-width:0.5;" x="120.307109005" xlink:href="#m9bdfb5c8a3" y="43.2"/>
      </g>
     </g>
     <g id="text_1">
      <!-- 400 -->
      <defs>
       <path d="M 31.78125 66.40625 
Q 24.171875 66.40625 20.328125 58.90625 
Q 16.5 51.421875 16.5 36.375 
Q 16.5 21.390625 20.328125 13.890625 
Q 24.171875 6.390625 31.78125 6.390625 
Q 39.453125 6.390625 43.28125 13.890625 
Q 47.125 21.390625 47.125 36.375 
Q 47.125 51.421875 43.28125 58.90625 
Q 39.453125 66.40625 31.78125 66.40625 
M 31.78125 74.21875 
Q 44.046875 74.21875 50.515625 64.515625 
Q 56.984375 54.828125 56.984375 36.375 
Q 56.984375 17.96875 50.515625 8.265625 
Q 44.046875 -1.421875 31.78125 -1.421875 
Q 19.53125 -1.421875 13.0625 8.265625 
Q 6.59375 17.96875 6.59375 36.375 
Q 6.59375 54.828125 13.0625 64.515625 
Q 19.53125 74.21875 31.78125 74.21875 
" id="BitstreamVeraSans-Roman-30"/>
       <path d="M 37.796875 64.3125 
L 12.890625 25.390625 
L 37.796875 25.390625 
z
M 35.203125 72.90625 
L 47.609375 72.90625 
L 47.609375 25.390625 
L 58.015625 25.390625 
L 58.015625 17.1875 
L 47.609375 17.1875 
L 47.609375 0 
L 37.796875 0 
L 37.796875 17.1875 
L 4.890625 17.1875 
L 4.890625 26.703125 
z
" id="BitstreamVeraSans-Roman-34"/>
      </defs>
      <g transform="translate(108.854609005 401.918125)scale(0.12 -0.12)">
       <use xlink:href="#BitstreamVeraSans-Roman-34"/>
       <use x="63.623046875" xlink:href="#BitstreamVeraSans-Roman-30"/>
       <use x="127.24609375" xlink:href="#BitstreamVeraSans-Roman-30"/>
      </g>
     </g>
    </g>
    <g id="xtick_2">
     <g id="line2d_8">
      <g>
       <use style="stroke:#000000;stroke-width:0.5;" x="207.753554502" xlink:href="#m021987d9c0" y="388.8"/>
      </g>
     </g>
     <g id="line2d_9">
      <g>
       <use style="stroke:#000000;stroke-width:0.5;" x="207.753554502" xlink:href="#m9bdfb5c8a3" y="43.2"/>
      </g>
     </g>
     <g id="text_2">
      <!-- 500 -->
      <defs>
       <path d="M 10.796875 72.90625 
L 49.515625 72.90625 
L 49.515625 64.59375 
L 19.828125 64.59375 
L 19.828125 46.734375 
Q 21.96875 47.46875 24.109375 47.828125 
Q 26.265625 48.1875 28.421875 48.1875 
Q 40.625 48.1875 47.75 41.5 
Q 54.890625 34.8125 54.890625 23.390625 
Q 54.890625 11.625 47.5625 5.09375 
Q 40.234375 -1.421875 26.90625 -1.421875 
Q 22.3125 -1.421875 17.546875 -0.640625 
Q 12.796875 0.140625 7.71875 1.703125 
L 7.71875 11.625 
Q 12.109375 9.234375 16.796875 8.0625 
Q 21.484375 6.890625 26.703125 6.890625 
Q 35.15625 6.890625 40.078125 11.328125 
Q 45.015625 15.765625 45.015625 23.390625 
Q 45.015625 31 40.078125 35.4375 
Q 35.15625 39.890625 26.703125 39.890625 
Q 22.75 39.890625 18.8125 39.015625 
Q 14.890625 38.140625 10.796875 36.28125 
z
" id="BitstreamVeraSans-Roman-35"/>
      </defs>
      <g transform="translate(196.301054502 401.918125)scale(0.12 -0.12)">
       <use xlink:href="#BitstreamVeraSans-Roman-35"/>
       <use x="63.623046875" xlink:href="#BitstreamVeraSans-Roman-30"/>
       <use x="127.24609375" xlink:href="#BitstreamVeraSans-Roman-30"/>
      </g>
     </g>
    </g>
    <g id="xtick_3">
     <g id="line2d_10">
      <g>
       <use style="stroke:#000000;stroke-width:0.5;" x="295.2" xlink:href="#m021987d9c0" y="388.8"/>
      </g>
     </g>
     <g id="line2d_11">
      <g>
       <use style="stroke:#000000;stroke-width:0.5;" x="295.2" xlink:href="#m9bdfb5c8a3" y="43.2"/>
      </g>
     </g>
     <g id="text_3">
      <!-- 600 -->
      <defs>
       <path d="M 33.015625 40.375 
Q 26.375 40.375 22.484375 35.828125 
Q 18.609375 31.296875 18.609375 23.390625 
Q 18.609375 15.53125 22.484375 10.953125 
Q 26.375 6.390625 33.015625 6.390625 
Q 39.65625 6.390625 43.53125 10.953125 
Q 47.40625 15.53125 47.40625 23.390625 
Q 47.40625 31.296875 43.53125 35.828125 
Q 39.65625 40.375 33.015625 40.375 
M 52.59375 71.296875 
L 52.59375 62.3125 
Q 48.875 64.0625 45.09375 64.984375 
Q 41.3125 65.921875 37.59375 65.921875 
Q 27.828125 65.921875 22.671875 59.328125 
Q 17.53125 52.734375 16.796875 39.40625 
Q 19.671875 43.65625 24.015625 45.921875 
Q 28.375 48.1875 33.59375 48.1875 
Q 44.578125 48.1875 50.953125 41.515625 
Q 57.328125 34.859375 57.328125 23.390625 
Q 57.328125 12.15625 50.6875 5.359375 
Q 44.046875 -1.421875 33.015625 -1.421875 
Q 20.359375 -1.421875 13.671875 8.265625 
Q 6.984375 17.96875 6.984375 36.375 
Q 6.984375 53.65625 15.1875 63.9375 
Q 23.390625 74.21875 37.203125 74.21875 
Q 40.921875 74.21875 44.703125 73.484375 
Q 48.484375 72.75 52.59375 71.296875 
" id="BitstreamVeraSans-Roman-36"/>
      </defs>
      <g transform="translate(283.7475 401.918125)scale(0.12 -0.12)">
       <use xlink:href="#BitstreamVeraSans-Roman-36"/>
       <use x="63.623046875" xlink:href="#BitstreamVeraSans-Roman-30"/>
       <use x="127.24609375" xlink:href="#BitstreamVeraSans-Roman-30"/>
      </g>
     </g>
    </g>
    <g id="xtick_4">
     <g id="line2d_12">
      <g>
       <use style="stroke:#000000;stroke-width:0.5;" x="382.646445498" xlink:href="#m021987d9c0" y="388.8"/>
      </g>
     </g>
     <g id="line2d_13">
      <g>
       <use style="stroke:#000000;stroke-width:0.5;" x="382.646445498" xlink:href="#m9bdfb5c8a3" y="43.2"/>
      </g>
     </g>
     <g id="text_4">
      <!-- 700 -->
      <defs>
       <path d="M 8.203125 72.90625 
L 55.078125 72.90625 
L 55.078125 68.703125 
L 28.609375 0 
L 18.3125 0 
L 43.21875 64.59375 
L 8.203125 64.59375 
z
" id="BitstreamVeraSans-Roman-37"/>
      </defs>
      <g transform="translate(371.193945498 401.918125)scale(0.12 -0.12)">
       <use xlink:href="#BitstreamVeraSans-Roman-37"/>
       <use x="63.623046875" xlink:href="#BitstreamVeraSans-Roman-30"/>
       <use x="127.24609375" xlink:href="#BitstreamVeraSans-Roman-30"/>
      </g>
     </g>
    </g>
    <g id="xtick_5">
     <g id="line2d_14">
      <g>
       <use style="stroke:#000000;stroke-width:0.5;" x="470.092890995" xlink:href="#m021987d9c0" y="388.8"/>
      </g>
     </g>
     <g id="line2d_15">
      <g>
       <use style="stroke:#000000;stroke-width:0.5;" x="470.092890995" xlink:href="#m9bdfb5c8a3" y="43.2"/>
      </g>
     </g>
     <g id="text_5">
      <!-- 800 -->
      <defs>
       <path d="M 31.78125 34.625 
Q 24.75 34.625 20.71875 30.859375 
Q 16.703125 27.09375 16.703125 20.515625 
Q 16.703125 13.921875 20.71875 10.15625 
Q 24.75 6.390625 31.78125 6.390625 
Q 38.8125 6.390625 42.859375 10.171875 
Q 46.921875 13.96875 46.921875 20.515625 
Q 46.921875 27.09375 42.890625 30.859375 
Q 38.875 34.625 31.78125 34.625 
M 21.921875 38.8125 
Q 15.578125 40.375 12.03125 44.71875 
Q 8.5 49.078125 8.5 55.328125 
Q 8.5 64.0625 14.71875 69.140625 
Q 20.953125 74.21875 31.78125 74.21875 
Q 42.671875 74.21875 48.875 69.140625 
Q 55.078125 64.0625 55.078125 55.328125 
Q 55.078125 49.078125 51.53125 44.71875 
Q 48 40.375 41.703125 38.8125 
Q 48.828125 37.15625 52.796875 32.3125 
Q 56.78125 27.484375 56.78125 20.515625 
Q 56.78125 9.90625 50.3125 4.234375 
Q 43.84375 -1.421875 31.78125 -1.421875 
Q 19.734375 -1.421875 13.25 4.234375 
Q 6.78125 9.90625 6.78125 20.515625 
Q 6.78125 27.484375 10.78125 32.3125 
Q 14.796875 37.15625 21.921875 38.8125 
M 18.3125 54.390625 
Q 18.3125 48.734375 21.84375 45.5625 
Q 25.390625 42.390625 31.78125 42.390625 
Q 38.140625 42.390625 41.71875 45.5625 
Q 45.3125 48.734375 45.3125 54.390625 
Q 45.3125 60.0625 41.71875 63.234375 
Q 38.140625 66.40625 31.78125 66.40625 
Q 25.390625 66.40625 21.84375 63.234375 
Q 18.3125 60.0625 18.3125 54.390625 
" id="BitstreamVeraSans-Roman-38"/>
      </defs>
      <g transform="translate(458.640390995 401.918125)scale(0.12 -0.12)">
       <use xlink:href="#BitstreamVeraSans-Roman-38"/>
       <use x="63.623046875" xlink:href="#BitstreamVeraSans-Roman-30"/>
       <use x="127.24609375" xlink:href="#BitstreamVeraSans-Roman-30"/>
      </g>
     </g>
    </g>
    <g id="text_6">
     <!-- Wavelength [nm] -->
     <defs>
      <path d="M 24.703125 0 
L 5.609375 46.6875 
L -0.296875 46.6875 
L -0.296875 51.90625 
L 23.578125 51.90625 
L 23.578125 46.6875 
L 15.28125 46.6875 
L 29.890625 10.984375 
L 44.484375 46.6875 
L 36.71875 46.6875 
L 36.71875 51.90625 
L 56.203125 51.90625 
L 56.203125 46.6875 
L 50.390625 46.6875 
L 31.296875 0 
z
" id="BitstreamVeraSerif-Roman-76"/>
      <path d="M 52.484375 46.6875 
L 52.484375 1.125 
Q 52.484375 -10.0625 46.328125 -16.140625 
Q 40.1875 -22.21875 28.8125 -22.21875 
Q 23.6875 -22.21875 19 -21.28125 
Q 14.3125 -20.359375 10.015625 -18.5 
L 10.015625 -7.625 
L 14.703125 -7.625 
Q 15.578125 -12.703125 18.84375 -15.046875 
Q 22.125 -17.390625 28.21875 -17.390625 
Q 36.140625 -17.390625 39.8125 -12.921875 
Q 43.5 -8.453125 43.5 1.125 
L 43.5 8.109375 
Q 40.875 3.21875 36.796875 0.890625 
Q 32.71875 -1.421875 26.703125 -1.421875 
Q 17.140625 -1.421875 11.0625 6.171875 
Q 4.984375 13.765625 4.984375 25.984375 
Q 4.984375 38.1875 11.03125 45.75 
Q 17.09375 53.328125 26.703125 53.328125 
Q 32.71875 53.328125 36.796875 51 
Q 40.875 48.6875 43.5 43.796875 
L 43.5 51.90625 
L 61.078125 51.90625 
L 61.078125 46.6875 
z
M 43.5 28.515625 
Q 43.5 37.84375 39.90625 42.765625 
Q 36.328125 47.703125 29.5 47.703125 
Q 22.5625 47.703125 19.015625 42.234375 
Q 15.484375 36.765625 15.484375 25.984375 
Q 15.484375 15.234375 19.015625 9.71875 
Q 22.5625 4.203125 29.5 4.203125 
Q 36.328125 4.203125 39.90625 9.109375 
Q 43.5 14.015625 43.5 23.390625 
z
" id="BitstreamVeraSerif-Roman-67"/>
      <path d="M 39.796875 16.3125 
L 39.796875 27.296875 
L 28.21875 27.296875 
Q 21.53125 27.296875 18.25 24.40625 
Q 14.984375 21.53125 14.984375 15.578125 
Q 14.984375 10.15625 18.296875 6.984375 
Q 21.625 3.8125 27.296875 3.8125 
Q 32.90625 3.8125 36.34375 7.28125 
Q 39.796875 10.75 39.796875 16.3125 
M 48.78125 32.421875 
L 48.78125 5.171875 
L 56.78125 5.171875 
L 56.78125 0 
L 39.796875 0 
L 39.796875 5.609375 
Q 36.8125 2 32.90625 0.28125 
Q 29 -1.421875 23.78125 -1.421875 
Q 15.140625 -1.421875 10.0625 3.171875 
Q 4.984375 7.765625 4.984375 15.578125 
Q 4.984375 23.640625 10.796875 28.078125 
Q 16.609375 32.515625 27.203125 32.515625 
L 39.796875 32.515625 
L 39.796875 36.078125 
Q 39.796875 42 36.203125 45.234375 
Q 32.625 48.484375 26.125 48.484375 
Q 20.75 48.484375 17.578125 46.046875 
Q 14.40625 43.609375 13.625 38.8125 
L 8.984375 38.8125 
L 8.984375 49.3125 
Q 13.671875 51.3125 18.09375 52.3125 
Q 22.515625 53.328125 26.703125 53.328125 
Q 37.5 53.328125 43.140625 47.96875 
Q 48.78125 42.625 48.78125 32.421875 
" id="BitstreamVeraSerif-Roman-61"/>
      <path d="M 54.203125 25 
L 15.484375 25 
L 15.484375 24.609375 
Q 15.484375 14.109375 19.4375 8.765625 
Q 23.390625 3.421875 31.109375 3.421875 
Q 37.015625 3.421875 40.796875 6.515625 
Q 44.578125 9.625 46.09375 15.71875 
L 53.328125 15.71875 
Q 51.171875 7.171875 45.375 2.875 
Q 39.59375 -1.421875 30.171875 -1.421875 
Q 18.796875 -1.421875 11.890625 6.078125 
Q 4.984375 13.578125 4.984375 25.984375 
Q 4.984375 38.28125 11.765625 45.796875 
Q 18.5625 53.328125 29.59375 53.328125 
Q 41.359375 53.328125 47.65625 46.0625 
Q 53.953125 38.8125 54.203125 25 
M 43.609375 30.171875 
Q 43.3125 39.265625 39.765625 43.875 
Q 36.234375 48.484375 29.59375 48.484375 
Q 23.390625 48.484375 19.828125 43.84375 
Q 16.265625 39.203125 15.484375 30.171875 
z
" id="BitstreamVeraSerif-Roman-65"/>
      <path id="BitstreamVeraSerif-Roman-20"/>
      <path d="M 8.59375 75.984375 
L 31.296875 75.984375 
L 31.296875 70.796875 
L 17.921875 70.796875 
L 17.921875 -8.015625 
L 31.296875 -8.015625 
L 31.296875 -13.1875 
L 8.59375 -13.1875 
z
" id="BitstreamVeraSerif-Roman-5b"/>
      <path d="M 4.109375 0 
L 4.109375 5.171875 
L 12.203125 5.171875 
L 12.203125 70.796875 
L 3.609375 70.796875 
L 3.609375 75.984375 
L 21.1875 75.984375 
L 21.1875 42.671875 
Q 23.6875 47.953125 27.65625 50.640625 
Q 31.640625 53.328125 36.921875 53.328125 
Q 45.515625 53.328125 49.5625 48.390625 
Q 53.609375 43.453125 53.609375 33.015625 
L 53.609375 5.171875 
L 61.625 5.171875 
L 61.625 0 
L 36.8125 0 
L 36.8125 5.171875 
L 44.578125 5.171875 
L 44.578125 30.171875 
Q 44.578125 39.703125 42.25 43.1875 
Q 39.9375 46.6875 33.984375 46.6875 
Q 27.734375 46.6875 24.453125 42.140625 
Q 21.1875 37.59375 21.1875 28.90625 
L 21.1875 5.171875 
L 29 5.171875 
L 29 0 
z
" id="BitstreamVeraSerif-Roman-68"/>
      <path d="M 30.421875 75.984375 
L 30.421875 -13.1875 
L 7.71875 -13.1875 
L 7.71875 -8.015625 
L 21.09375 -8.015625 
L 21.09375 70.796875 
L 7.71875 70.796875 
L 7.71875 75.984375 
z
" id="BitstreamVeraSerif-Roman-5d"/>
      <path d="M 51.8125 41.796875 
Q 54.390625 47.515625 58.421875 50.421875 
Q 62.453125 53.328125 67.828125 53.328125 
Q 75.984375 53.328125 79.984375 48.265625 
Q 83.984375 43.21875 83.984375 33.015625 
L 83.984375 5.171875 
L 92.09375 5.171875 
L 92.09375 0 
L 67.1875 0 
L 67.1875 5.171875 
L 75 5.171875 
L 75 31.984375 
Q 75 39.9375 72.65625 43.3125 
Q 70.3125 46.6875 64.890625 46.6875 
Q 58.890625 46.6875 55.734375 42.140625 
Q 52.59375 37.59375 52.59375 28.90625 
L 52.59375 5.171875 
L 60.40625 5.171875 
L 60.40625 0 
L 35.796875 0 
L 35.796875 5.171875 
L 43.609375 5.171875 
L 43.609375 32.328125 
Q 43.609375 40.09375 41.265625 43.390625 
Q 38.921875 46.6875 33.5 46.6875 
Q 27.484375 46.6875 24.328125 42.140625 
Q 21.1875 37.59375 21.1875 28.90625 
L 21.1875 5.171875 
L 29 5.171875 
L 29 0 
L 4.109375 0 
L 4.109375 5.171875 
L 12.203125 5.171875 
L 12.203125 46.78125 
L 3.609375 46.78125 
L 3.609375 51.90625 
L 21.1875 51.90625 
L 21.1875 42.671875 
Q 23.6875 47.859375 27.53125 50.59375 
Q 31.390625 53.328125 36.28125 53.328125 
Q 42.328125 53.328125 46.375 50.3125 
Q 50.4375 47.3125 51.8125 41.796875 
" id="BitstreamVeraSerif-Roman-6d"/>
      <path d="M 4.109375 0 
L 4.109375 5.171875 
L 12.203125 5.171875 
L 12.203125 46.6875 
L 3.609375 46.6875 
L 3.609375 51.90625 
L 21.1875 51.90625 
L 21.1875 42.671875 
Q 23.6875 47.953125 27.65625 50.640625 
Q 31.640625 53.328125 36.921875 53.328125 
Q 45.515625 53.328125 49.5625 48.390625 
Q 53.609375 43.453125 53.609375 33.015625 
L 53.609375 5.171875 
L 61.625 5.171875 
L 61.625 0 
L 36.8125 0 
L 36.8125 5.171875 
L 44.578125 5.171875 
L 44.578125 30.171875 
Q 44.578125 39.703125 42.234375 43.234375 
Q 39.890625 46.78125 33.984375 46.78125 
Q 27.734375 46.78125 24.453125 42.203125 
Q 21.1875 37.640625 21.1875 28.90625 
L 21.1875 5.171875 
L 29 5.171875 
L 29 0 
z
" id="BitstreamVeraSerif-Roman-6e"/>
      <path d="M 10.796875 46.6875 
L 2.875 46.6875 
L 2.875 51.90625 
L 10.796875 51.90625 
L 10.796875 68.015625 
L 19.828125 68.015625 
L 19.828125 51.90625 
L 36.71875 51.90625 
L 36.71875 46.6875 
L 19.828125 46.6875 
L 19.828125 13.71875 
Q 19.828125 7.125 21.09375 5.265625 
Q 22.359375 3.421875 25.78125 3.421875 
Q 29.296875 3.421875 30.90625 5.484375 
Q 32.515625 7.5625 32.625 12.203125 
L 39.40625 12.203125 
Q 39.015625 5.125 35.546875 1.84375 
Q 32.078125 -1.421875 25 -1.421875 
Q 17.234375 -1.421875 14.015625 2.015625 
Q 10.796875 5.46875 10.796875 13.71875 
z
" id="BitstreamVeraSerif-Roman-74"/>
      <path d="M 20.515625 5.171875 
L 29 5.171875 
L 29 0 
L 2.875 0 
L 2.875 5.171875 
L 11.53125 5.171875 
L 11.53125 70.796875 
L 2.875 70.796875 
L 2.875 75.984375 
L 20.515625 75.984375 
z
" id="BitstreamVeraSerif-Roman-6c"/>
      <path d="M 76.21875 0 
L 68.21875 0 
L 51.515625 59.28125 
L 34.8125 0 
L 26.8125 0 
L 7.71875 67.671875 
L 0.484375 67.671875 
L 0.484375 72.90625 
L 27.09375 72.90625 
L 27.09375 67.671875 
L 18.015625 67.671875 
L 33.203125 13.8125 
L 49.8125 72.90625 
L 57.71875 72.90625 
L 74.609375 13.1875 
L 89.890625 67.671875 
L 81.5 67.671875 
L 81.5 72.90625 
L 102.484375 72.90625 
L 102.484375 67.671875 
L 95.3125 67.671875 
z
" id="BitstreamVeraSerif-Roman-57"/>
     </defs>
     <g transform="translate(242.9278125 418.531875)scale(0.12 -0.12)">
      <use xlink:href="#BitstreamVeraSerif-Roman-57"/>
      <use x="102.658203125" xlink:href="#BitstreamVeraSerif-Roman-61"/>
      <use x="162.27734375" xlink:href="#BitstreamVeraSerif-Roman-76"/>
      <use x="218.771484375" xlink:href="#BitstreamVeraSerif-Roman-65"/>
      <use x="277.951171875" xlink:href="#BitstreamVeraSerif-Roman-6c"/>
      <use x="309.93359375" xlink:href="#BitstreamVeraSerif-Roman-65"/>
      <use x="369.11328125" xlink:href="#BitstreamVeraSerif-Roman-6e"/>
      <use x="433.517578125" xlink:href="#BitstreamVeraSerif-Roman-67"/>
      <use x="497.53125" xlink:href="#BitstreamVeraSerif-Roman-74"/>
      <use x="537.716796875" xlink:href="#BitstreamVeraSerif-Roman-68"/>
      <use x="602.12109375" xlink:href="#BitstreamVeraSerif-Roman-20"/>
      <use x="633.908203125" xlink:href="#BitstreamVeraSerif-Roman-5b"/>
      <use x="672.921875" xlink:href="#BitstreamVeraSerif-Roman-6e"/>
      <use x="737.326171875" xlink:href="#BitstreamVeraSerif-Roman-6d"/>
      <use x="832.150390625" xlink:href="#BitstreamVeraSerif-Roman-5d"/>
     </g>
    </g>
   </g>
   <g id="matplotlib.axis_2">
    <g id="ytick_1">
     <g id="line2d_16">
      <defs>
       <path d="M 0 0 
L 4 0 
" id="meb409c02e5" style="stroke:#000000;stroke-width:0.5;"/>
      </defs>
      <g>
       <use style="stroke:#000000;stroke-width:0.5;" x="72.0" xlink:href="#meb409c02e5" y="339.428571429"/>
      </g>
     </g>
     <g id="line2d_17">
      <defs>
       <path d="M 0 0 
L -4 0 
" id="md1a52bde65" style="stroke:#000000;stroke-width:0.5;"/>
      </defs>
      <g>
       <use style="stroke:#000000;stroke-width:0.5;" x="518.4" xlink:href="#md1a52bde65" y="339.428571429"/>
      </g>
     </g>
     <g id="text_7">
      <!-- 0.6 -->
      <defs>
       <path d="M 10.6875 12.40625 
L 21 12.40625 
L 21 0 
L 10.6875 0 
z
" id="BitstreamVeraSans-Roman-2e"/>
      </defs>
      <g transform="translate(48.91625 342.739821429)scale(0.12 -0.12)">
       <use xlink:href="#BitstreamVeraSans-Roman-30"/>
       <use x="63.623046875" xlink:href="#BitstreamVeraSans-Roman-2e"/>
       <use x="95.41015625" xlink:href="#BitstreamVeraSans-Roman-36"/>
      </g>
     </g>
    </g>
    <g id="ytick_2">
     <g id="line2d_18">
      <g>
       <use style="stroke:#000000;stroke-width:0.5;" x="72.0" xlink:href="#meb409c02e5" y="274.943440233"/>
      </g>
     </g>
     <g id="line2d_19">
      <g>
       <use style="stroke:#000000;stroke-width:0.5;" x="518.4" xlink:href="#md1a52bde65" y="274.943440233"/>
      </g>
     </g>
     <g id="text_8">
      <!-- 0.7 -->
      <g transform="translate(48.91625 278.254690233)scale(0.12 -0.12)">
       <use xlink:href="#BitstreamVeraSans-Roman-30"/>
       <use x="63.623046875" xlink:href="#BitstreamVeraSans-Roman-2e"/>
       <use x="95.41015625" xlink:href="#BitstreamVeraSans-Roman-37"/>
      </g>
     </g>
    </g>
    <g id="ytick_3">
     <g id="line2d_20">
      <g>
       <use style="stroke:#000000;stroke-width:0.5;" x="72.0" xlink:href="#meb409c02e5" y="210.458309038"/>
      </g>
     </g>
     <g id="line2d_21">
      <g>
       <use style="stroke:#000000;stroke-width:0.5;" x="518.4" xlink:href="#md1a52bde65" y="210.458309038"/>
      </g>
     </g>
     <g id="text_9">
      <!-- 0.8 -->
      <g transform="translate(48.91625 213.769559038)scale(0.12 -0.12)">
       <use xlink:href="#BitstreamVeraSans-Roman-30"/>
       <use x="63.623046875" xlink:href="#BitstreamVeraSans-Roman-2e"/>
       <use x="95.41015625" xlink:href="#BitstreamVeraSans-Roman-38"/>
      </g>
     </g>
    </g>
    <g id="ytick_4">
     <g id="line2d_22">
      <g>
       <use style="stroke:#000000;stroke-width:0.5;" x="72.0" xlink:href="#meb409c02e5" y="145.973177843"/>
      </g>
     </g>
     <g id="line2d_23">
      <g>
       <use style="stroke:#000000;stroke-width:0.5;" x="518.4" xlink:href="#md1a52bde65" y="145.973177843"/>
      </g>
     </g>
     <g id="text_10">
      <!-- 0.9 -->
      <defs>
       <path d="M 10.984375 1.515625 
L 10.984375 10.5 
Q 14.703125 8.734375 18.5 7.8125 
Q 22.3125 6.890625 25.984375 6.890625 
Q 35.75 6.890625 40.890625 13.453125 
Q 46.046875 20.015625 46.78125 33.40625 
Q 43.953125 29.203125 39.59375 26.953125 
Q 35.25 24.703125 29.984375 24.703125 
Q 19.046875 24.703125 12.671875 31.3125 
Q 6.296875 37.9375 6.296875 49.421875 
Q 6.296875 60.640625 12.9375 67.421875 
Q 19.578125 74.21875 30.609375 74.21875 
Q 43.265625 74.21875 49.921875 64.515625 
Q 56.59375 54.828125 56.59375 36.375 
Q 56.59375 19.140625 48.40625 8.859375 
Q 40.234375 -1.421875 26.421875 -1.421875 
Q 22.703125 -1.421875 18.890625 -0.6875 
Q 15.09375 0.046875 10.984375 1.515625 
M 30.609375 32.421875 
Q 37.25 32.421875 41.125 36.953125 
Q 45.015625 41.5 45.015625 49.421875 
Q 45.015625 57.28125 41.125 61.84375 
Q 37.25 66.40625 30.609375 66.40625 
Q 23.96875 66.40625 20.09375 61.84375 
Q 16.21875 57.28125 16.21875 49.421875 
Q 16.21875 41.5 20.09375 36.953125 
Q 23.96875 32.421875 30.609375 32.421875 
" id="BitstreamVeraSans-Roman-39"/>
      </defs>
      <g transform="translate(48.91625 149.284427843)scale(0.12 -0.12)">
       <use xlink:href="#BitstreamVeraSans-Roman-30"/>
       <use x="63.623046875" xlink:href="#BitstreamVeraSans-Roman-2e"/>
       <use x="95.41015625" xlink:href="#BitstreamVeraSans-Roman-39"/>
      </g>
     </g>
    </g>
    <g id="ytick_5">
     <g id="line2d_24">
      <g>
       <use style="stroke:#000000;stroke-width:0.5;" x="72.0" xlink:href="#meb409c02e5" y="81.4880466472"/>
      </g>
     </g>
     <g id="line2d_25">
      <g>
       <use style="stroke:#000000;stroke-width:0.5;" x="518.4" xlink:href="#md1a52bde65" y="81.4880466472"/>
      </g>
     </g>
     <g id="text_11">
      <!-- 1.0 -->
      <defs>
       <path d="M 12.40625 8.296875 
L 28.515625 8.296875 
L 28.515625 63.921875 
L 10.984375 60.40625 
L 10.984375 69.390625 
L 28.421875 72.90625 
L 38.28125 72.90625 
L 38.28125 8.296875 
L 54.390625 8.296875 
L 54.390625 0 
L 12.40625 0 
z
" id="BitstreamVeraSans-Roman-31"/>
      </defs>
      <g transform="translate(48.91625 84.7992966472)scale(0.12 -0.12)">
       <use xlink:href="#BitstreamVeraSans-Roman-31"/>
       <use x="63.623046875" xlink:href="#BitstreamVeraSans-Roman-2e"/>
       <use x="95.41015625" xlink:href="#BitstreamVeraSans-Roman-30"/>
      </g>
     </g>
    </g>
    <g id="text_12">
     <!-- Transmittance -->
     <defs>
      <path d="M 9.71875 68.015625 
Q 9.71875 70.265625 11.34375 71.921875 
Q 12.984375 73.578125 15.28125 73.578125 
Q 17.53125 73.578125 19.15625 71.921875 
Q 20.796875 70.265625 20.796875 68.015625 
Q 20.796875 65.71875 19.1875 64.109375 
Q 17.578125 62.5 15.28125 62.5 
Q 12.984375 62.5 11.34375 64.109375 
Q 9.71875 65.71875 9.71875 68.015625 
M 21.1875 5.171875 
L 29.6875 5.171875 
L 29.6875 0 
L 3.609375 0 
L 3.609375 5.171875 
L 12.203125 5.171875 
L 12.203125 46.6875 
L 3.609375 46.6875 
L 3.609375 51.90625 
L 21.1875 51.90625 
z
" id="BitstreamVeraSerif-Roman-69"/>
      <path d="M 5.609375 2.875 
L 5.609375 14.984375 
L 10.796875 14.984375 
Q 10.984375 9.1875 14.421875 6.296875 
Q 17.875 3.421875 24.609375 3.421875 
Q 30.671875 3.421875 33.84375 5.6875 
Q 37.015625 7.953125 37.015625 12.3125 
Q 37.015625 15.71875 34.6875 17.8125 
Q 32.375 19.921875 24.90625 22.3125 
L 18.40625 24.515625 
Q 11.71875 26.65625 8.71875 29.875 
Q 5.71875 33.109375 5.71875 38.09375 
Q 5.71875 45.21875 10.9375 49.265625 
Q 16.15625 53.328125 25.390625 53.328125 
Q 29.5 53.328125 34.03125 52.25 
Q 38.578125 51.171875 43.40625 49.125 
L 43.40625 37.796875 
L 38.234375 37.796875 
Q 38.03125 42.828125 34.703125 45.65625 
Q 31.390625 48.484375 25.6875 48.484375 
Q 20.015625 48.484375 17.109375 46.484375 
Q 14.203125 44.484375 14.203125 40.484375 
Q 14.203125 37.203125 16.40625 35.21875 
Q 18.609375 33.25 25.203125 31.203125 
L 32.328125 29 
Q 39.703125 26.703125 42.9375 23.265625 
Q 46.1875 19.828125 46.1875 14.40625 
Q 46.1875 7.03125 40.546875 2.796875 
Q 34.90625 -1.421875 25 -1.421875 
Q 19.96875 -1.421875 15.1875 -0.34375 
Q 10.40625 0.734375 5.609375 2.875 
" id="BitstreamVeraSerif-Roman-73"/>
      <path d="M 19.09375 0 
L 19.09375 5.171875 
L 28.421875 5.171875 
L 28.421875 67.09375 
L 6.984375 67.09375 
L 6.984375 55.71875 
L 0.984375 55.71875 
L 0.984375 72.90625 
L 65.71875 72.90625 
L 65.71875 55.71875 
L 59.71875 55.71875 
L 59.71875 67.09375 
L 38.28125 67.09375 
L 38.28125 5.171875 
L 47.609375 5.171875 
L 47.609375 0 
z
" id="BitstreamVeraSerif-Roman-54"/>
      <path d="M 51.421875 15.578125 
Q 49.515625 7.28125 44.09375 2.921875 
Q 38.671875 -1.421875 30.078125 -1.421875 
Q 18.75 -1.421875 11.859375 6.078125 
Q 4.984375 13.578125 4.984375 25.984375 
Q 4.984375 38.421875 11.859375 45.875 
Q 18.75 53.328125 30.078125 53.328125 
Q 35.015625 53.328125 39.890625 52.171875 
Q 44.78125 51.03125 49.703125 48.6875 
L 49.703125 35.40625 
L 44.484375 35.40625 
Q 43.453125 42.234375 40.015625 45.359375 
Q 36.578125 48.484375 30.171875 48.484375 
Q 22.90625 48.484375 19.1875 42.84375 
Q 15.484375 37.203125 15.484375 25.984375 
Q 15.484375 14.75 19.171875 9.078125 
Q 22.859375 3.421875 30.171875 3.421875 
Q 35.984375 3.421875 39.453125 6.4375 
Q 42.921875 9.46875 44.1875 15.578125 
z
" id="BitstreamVeraSerif-Roman-63"/>
      <path d="M 47.796875 52 
L 47.796875 39.015625 
L 42.625 39.015625 
Q 42.390625 42.875 40.484375 44.78125 
Q 38.578125 46.6875 34.90625 46.6875 
Q 28.265625 46.6875 24.71875 42.09375 
Q 21.1875 37.5 21.1875 28.90625 
L 21.1875 5.171875 
L 31.59375 5.171875 
L 31.59375 0 
L 4.109375 0 
L 4.109375 5.171875 
L 12.203125 5.171875 
L 12.203125 46.78125 
L 3.609375 46.78125 
L 3.609375 51.90625 
L 21.1875 51.90625 
L 21.1875 42.671875 
Q 23.828125 48.09375 27.96875 50.703125 
Q 32.125 53.328125 38.09375 53.328125 
Q 40.28125 53.328125 42.703125 52.984375 
Q 45.125 52.640625 47.796875 52 
" id="BitstreamVeraSerif-Roman-72"/>
     </defs>
     <g transform="translate(41.420625 260.175)rotate(-90.0)scale(0.12 -0.12)">
      <use xlink:href="#BitstreamVeraSerif-Roman-54"/>
      <use x="66.69921875" xlink:href="#BitstreamVeraSerif-Roman-72"/>
      <use x="114.501953125" xlink:href="#BitstreamVeraSerif-Roman-61"/>
      <use x="174.12109375" xlink:href="#BitstreamVeraSerif-Roman-6e"/>
      <use x="238.525390625" xlink:href="#BitstreamVeraSerif-Roman-73"/>
      <use x="289.84375" xlink:href="#BitstreamVeraSerif-Roman-6d"/>
      <use x="384.66796875" xlink:href="#BitstreamVeraSerif-Roman-69"/>
      <use x="416.650390625" xlink:href="#BitstreamVeraSerif-Roman-74"/>
      <use x="456.8359375" xlink:href="#BitstreamVeraSerif-Roman-74"/>
      <use x="497.021484375" xlink:href="#BitstreamVeraSerif-Roman-61"/>
      <use x="556.640625" xlink:href="#BitstreamVeraSerif-Roman-6e"/>
      <use x="621.044921875" xlink:href="#BitstreamVeraSerif-Roman-63"/>
      <use x="677.05078125" xlink:href="#BitstreamVeraSerif-Roman-65"/>
     </g>
    </g>
   </g>
   <g id="legend_1">
    <g id="patch_7">
     <path d="M 76.998 383.802 
L 173.495323 383.802 
L 173.495323 307.441931 
L 76.998 307.441931 
z
" style="fill:#ffffff;stroke:#000000;stroke-linejoin:miter;"/>
    </g>
    <g id="line2d_26">
     <path d="M 83.9952 315.537129 
L 97.9896 315.537129 
" style="fill:none;stroke:#0000ff;stroke-linecap:square;"/>
    </g>
    <g id="line2d_27"/>
    <g id="text_13">
     <!-- WV 0.25cm -->
     <defs>
      <path d="M 12.796875 55.515625 
L 7.328125 55.515625 
L 7.328125 68.5 
Q 12.546875 71.296875 17.84375 72.75 
Q 23.140625 74.21875 28.21875 74.21875 
Q 39.59375 74.21875 46.1875 68.703125 
Q 52.78125 63.1875 52.78125 53.71875 
Q 52.78125 43.015625 37.84375 28.125 
Q 36.671875 27 36.078125 26.421875 
L 17.671875 8.015625 
L 48.09375 8.015625 
L 48.09375 17 
L 53.8125 17 
L 53.8125 0 
L 6.78125 0 
L 6.78125 5.328125 
L 28.90625 27.390625 
Q 36.234375 34.71875 39.359375 40.84375 
Q 42.484375 46.96875 42.484375 53.71875 
Q 42.484375 61.078125 38.640625 65.234375 
Q 34.8125 69.390625 28.078125 69.390625 
Q 21.09375 69.390625 17.28125 65.921875 
Q 13.484375 62.453125 12.796875 55.515625 
" id="BitstreamVeraSerif-Roman-32"/>
      <path d="M 31.78125 3.421875 
Q 39.265625 3.421875 42.96875 11.625 
Q 46.6875 19.828125 46.6875 36.375 
Q 46.6875 52.984375 42.96875 61.1875 
Q 39.265625 69.390625 31.78125 69.390625 
Q 24.3125 69.390625 20.59375 61.1875 
Q 16.890625 52.984375 16.890625 36.375 
Q 16.890625 19.828125 20.59375 11.625 
Q 24.3125 3.421875 31.78125 3.421875 
M 31.78125 -1.421875 
Q 19.921875 -1.421875 13.25 8.53125 
Q 6.59375 18.5 6.59375 36.375 
Q 6.59375 54.296875 13.25 64.25 
Q 19.921875 74.21875 31.78125 74.21875 
Q 43.703125 74.21875 50.34375 64.25 
Q 56.984375 54.296875 56.984375 36.375 
Q 56.984375 18.5 50.34375 8.53125 
Q 43.703125 -1.421875 31.78125 -1.421875 
" id="BitstreamVeraSerif-Roman-30"/>
      <path d="M 9.421875 5.078125 
Q 9.421875 7.8125 11.28125 9.71875 
Q 13.140625 11.625 15.921875 11.625 
Q 18.609375 11.625 20.5 9.71875 
Q 22.40625 7.8125 22.40625 5.078125 
Q 22.40625 2.390625 20.5 0.484375 
Q 18.609375 -1.421875 15.921875 -1.421875 
Q 13.140625 -1.421875 11.28125 0.453125 
Q 9.421875 2.34375 9.421875 5.078125 
" id="BitstreamVeraSerif-Roman-2e"/>
      <path d="M 50.296875 72.90625 
L 50.296875 64.890625 
L 16.890625 64.890625 
L 16.890625 44 
Q 19.4375 45.75 22.828125 46.625 
Q 26.21875 47.515625 30.421875 47.515625 
Q 42.234375 47.515625 49.0625 40.96875 
Q 55.90625 34.421875 55.90625 23.09375 
Q 55.90625 11.53125 49 5.046875 
Q 42.09375 -1.421875 29.59375 -1.421875 
Q 24.5625 -1.421875 19.28125 -0.1875 
Q 14.015625 1.03125 8.5 3.515625 
L 8.5 17.671875 
L 14.015625 17.671875 
Q 14.453125 10.75 18.421875 7.078125 
Q 22.40625 3.421875 29.59375 3.421875 
Q 37.3125 3.421875 41.453125 8.5 
Q 45.609375 13.578125 45.609375 23.09375 
Q 45.609375 32.5625 41.484375 37.609375 
Q 37.359375 42.671875 29.59375 42.671875 
Q 25.203125 42.671875 21.84375 41.109375 
Q 18.5 39.546875 15.921875 36.28125 
L 11.71875 36.28125 
L 11.71875 72.90625 
z
" id="BitstreamVeraSerif-Roman-35"/>
      <path d="M 17.484375 67.671875 
L 39.015625 11.71875 
L 60.5 67.671875 
L 52.296875 67.671875 
L 52.296875 72.90625 
L 73.6875 72.90625 
L 73.6875 67.671875 
L 66.609375 67.671875 
L 40.578125 0 
L 32.171875 0 
L 6.296875 67.671875 
L -0.984375 67.671875 
L -0.984375 72.90625 
L 25.59375 72.90625 
L 25.59375 67.671875 
z
" id="BitstreamVeraSerif-Roman-56"/>
     </defs>
     <g transform="translate(108.9852 319.035729375)scale(0.09996 -0.09996)">
      <use xlink:href="#BitstreamVeraSerif-Roman-57"/>
      <use x="102.783203125" xlink:href="#BitstreamVeraSerif-Roman-56"/>
      <use x="175.0" xlink:href="#BitstreamVeraSerif-Roman-20"/>
      <use x="206.787109375" xlink:href="#BitstreamVeraSerif-Roman-30"/>
      <use x="270.41015625" xlink:href="#BitstreamVeraSerif-Roman-2e"/>
      <use x="302.197265625" xlink:href="#BitstreamVeraSerif-Roman-32"/>
      <use x="365.8203125" xlink:href="#BitstreamVeraSerif-Roman-35"/>
      <use x="429.443359375" xlink:href="#BitstreamVeraSerif-Roman-63"/>
      <use x="485.44921875" xlink:href="#BitstreamVeraSerif-Roman-6d"/>
     </g>
    </g>
    <g id="line2d_28">
     <path d="M 83.9952 330.209383 
L 97.9896 330.209383 
" style="fill:none;stroke:#008000;stroke-linecap:square;"/>
    </g>
    <g id="line2d_29"/>
    <g id="text_14">
     <!-- WV 1.5cm -->
     <defs>
      <path d="M 14.203125 0 
L 14.203125 5.171875 
L 26.90625 5.171875 
L 26.90625 65.828125 
L 12.203125 56.296875 
L 12.203125 62.703125 
L 29.984375 74.21875 
L 36.71875 74.21875 
L 36.71875 5.171875 
L 49.421875 5.171875 
L 49.421875 0 
z
" id="BitstreamVeraSerif-Roman-31"/>
     </defs>
     <g transform="translate(108.9852 333.707983125)scale(0.09996 -0.09996)">
      <use xlink:href="#BitstreamVeraSerif-Roman-57"/>
      <use x="102.783203125" xlink:href="#BitstreamVeraSerif-Roman-56"/>
      <use x="175.0" xlink:href="#BitstreamVeraSerif-Roman-20"/>
      <use x="206.787109375" xlink:href="#BitstreamVeraSerif-Roman-31"/>
      <use x="270.41015625" xlink:href="#BitstreamVeraSerif-Roman-2e"/>
      <use x="302.197265625" xlink:href="#BitstreamVeraSerif-Roman-35"/>
      <use x="365.8203125" xlink:href="#BitstreamVeraSerif-Roman-63"/>
      <use x="421.826171875" xlink:href="#BitstreamVeraSerif-Roman-6d"/>
     </g>
    </g>
    <g id="line2d_30">
     <path d="M 83.9952 344.881637 
L 97.9896 344.881637 
" style="fill:none;stroke:#ff0000;stroke-linecap:square;"/>
    </g>
    <g id="line2d_31"/>
    <g id="text_15">
     <!-- Hoz 0.3cm -->
     <defs>
      <path d="M 9.71875 69.828125 
Q 15.4375 71.96875 20.671875 73.09375 
Q 25.921875 74.21875 30.515625 74.21875 
Q 41.21875 74.21875 47.21875 69.59375 
Q 53.21875 64.984375 53.21875 56.78125 
Q 53.21875 50.203125 49.0625 45.78125 
Q 44.921875 41.359375 37.3125 39.796875 
Q 46.296875 38.53125 51.25 33.28125 
Q 56.203125 28.03125 56.203125 19.671875 
Q 56.203125 9.46875 49.34375 4.015625 
Q 42.484375 -1.421875 29.59375 -1.421875 
Q 23.875 -1.421875 18.421875 -0.1875 
Q 12.984375 1.03125 7.625 3.515625 
L 7.625 17.671875 
L 13.09375 17.671875 
Q 13.578125 10.640625 17.828125 7.03125 
Q 22.078125 3.421875 29.78125 3.421875 
Q 37.25 3.421875 41.578125 7.734375 
Q 45.90625 12.0625 45.90625 19.578125 
Q 45.90625 28.171875 41.453125 32.59375 
Q 37.015625 37.015625 28.421875 37.015625 
L 23.78125 37.015625 
L 23.78125 42 
L 26.21875 42 
Q 34.765625 42 39.03125 45.53125 
Q 43.3125 49.078125 43.3125 56.203125 
Q 43.3125 62.59375 39.796875 65.984375 
Q 36.28125 69.390625 29.6875 69.390625 
Q 23.09375 69.390625 19.453125 66.265625 
Q 15.828125 63.140625 15.1875 56.984375 
L 9.71875 56.984375 
z
" id="BitstreamVeraSerif-Roman-33"/>
      <path d="M 30.078125 3.421875 
Q 37.3125 3.421875 40.984375 9.125 
Q 44.671875 14.84375 44.671875 25.984375 
Q 44.671875 37.109375 40.984375 42.796875 
Q 37.3125 48.484375 30.078125 48.484375 
Q 22.859375 48.484375 19.171875 42.796875 
Q 15.484375 37.109375 15.484375 25.984375 
Q 15.484375 14.84375 19.1875 9.125 
Q 22.90625 3.421875 30.078125 3.421875 
M 30.078125 -1.421875 
Q 18.75 -1.421875 11.859375 6.078125 
Q 4.984375 13.578125 4.984375 25.984375 
Q 4.984375 38.375 11.84375 45.84375 
Q 18.703125 53.328125 30.078125 53.328125 
Q 41.453125 53.328125 48.3125 45.84375 
Q 55.171875 38.375 55.171875 25.984375 
Q 55.171875 13.578125 48.3125 6.078125 
Q 41.453125 -1.421875 30.078125 -1.421875 
" id="BitstreamVeraSerif-Roman-6f"/>
      <path d="M 4 0 
L 4 4.203125 
L 36.53125 46.6875 
L 10.796875 46.6875 
L 10.796875 37.703125 
L 5.609375 37.703125 
L 5.609375 51.90625 
L 48.09375 51.90625 
L 48.09375 47.703125 
L 15.578125 5.171875 
L 43.796875 5.171875 
L 43.796875 14.59375 
L 49.03125 14.59375 
L 49.03125 0 
z
" id="BitstreamVeraSerif-Roman-7a"/>
      <path d="M 5.515625 0 
L 5.515625 5.171875 
L 14.796875 5.171875 
L 14.796875 67.671875 
L 5.515625 67.671875 
L 5.515625 72.90625 
L 33.984375 72.90625 
L 33.984375 67.671875 
L 24.703125 67.671875 
L 24.703125 42.484375 
L 62.5 42.484375 
L 62.5 67.671875 
L 53.21875 67.671875 
L 53.21875 72.90625 
L 81.6875 72.90625 
L 81.6875 67.671875 
L 72.40625 67.671875 
L 72.40625 5.171875 
L 81.6875 5.171875 
L 81.6875 0 
L 53.21875 0 
L 53.21875 5.171875 
L 62.5 5.171875 
L 62.5 36.53125 
L 24.703125 36.53125 
L 24.703125 5.171875 
L 33.984375 5.171875 
L 33.984375 0 
z
" id="BitstreamVeraSerif-Roman-48"/>
     </defs>
     <g transform="translate(108.9852 348.380236875)scale(0.09996 -0.09996)">
      <use xlink:href="#BitstreamVeraSerif-Roman-48"/>
      <use x="87.20703125" xlink:href="#BitstreamVeraSerif-Roman-6f"/>
      <use x="147.412109375" xlink:href="#BitstreamVeraSerif-Roman-7a"/>
      <use x="200.09765625" xlink:href="#BitstreamVeraSerif-Roman-20"/>
      <use x="231.884765625" xlink:href="#BitstreamVeraSerif-Roman-30"/>
      <use x="295.5078125" xlink:href="#BitstreamVeraSerif-Roman-2e"/>
      <use x="327.294921875" xlink:href="#BitstreamVeraSerif-Roman-33"/>
      <use x="390.91796875" xlink:href="#BitstreamVeraSerif-Roman-63"/>
      <use x="446.923828125" xlink:href="#BitstreamVeraSerif-Roman-6d"/>
     </g>
    </g>
    <g id="line2d_32">
     <path d="M 83.9952 359.553891 
L 97.9896 359.553891 
" style="fill:none;stroke:#00bfbf;stroke-linecap:square;"/>
    </g>
    <g id="line2d_33"/>
    <g id="text_16">
     <!-- Hoz 0.33cm -->
     <g transform="translate(108.9852 363.052490625)scale(0.09996 -0.09996)">
      <use xlink:href="#BitstreamVeraSerif-Roman-48"/>
      <use x="87.20703125" xlink:href="#BitstreamVeraSerif-Roman-6f"/>
      <use x="147.412109375" xlink:href="#BitstreamVeraSerif-Roman-7a"/>
      <use x="200.09765625" xlink:href="#BitstreamVeraSerif-Roman-20"/>
      <use x="231.884765625" xlink:href="#BitstreamVeraSerif-Roman-30"/>
      <use x="295.5078125" xlink:href="#BitstreamVeraSerif-Roman-2e"/>
      <use x="327.294921875" xlink:href="#BitstreamVeraSerif-Roman-33"/>
      <use x="390.91796875" xlink:href="#BitstreamVeraSerif-Roman-33"/>
      <use x="454.541015625" xlink:href="#BitstreamVeraSerif-Roman-63"/>
      <use x="510.546875" xlink:href="#BitstreamVeraSerif-Roman-6d"/>
     </g>
    </g>
    <g id="line2d_34">
     <path d="M 83.9952 374.226144 
L 97.9896 374.226144 
" style="fill:none;stroke:#bf00bf;stroke-linecap:square;"/>
    </g>
    <g id="line2d_35"/>
    <g id="text_17">
     <!-- Hoz 0.34cm -->
     <defs>
      <path d="M 34.90625 24.703125 
L 34.90625 63.484375 
L 10.015625 24.703125 
z
M 56.390625 0 
L 23.1875 0 
L 23.1875 5.171875 
L 34.90625 5.171875 
L 34.90625 19.484375 
L 3.078125 19.484375 
L 3.078125 24.8125 
L 35.015625 74.21875 
L 44.671875 74.21875 
L 44.671875 24.703125 
L 58.59375 24.703125 
L 58.59375 19.484375 
L 44.671875 19.484375 
L 44.671875 5.171875 
L 56.390625 5.171875 
z
" id="BitstreamVeraSerif-Roman-34"/>
     </defs>
     <g transform="translate(108.9852 377.724744375)scale(0.09996 -0.09996)">
      <use xlink:href="#BitstreamVeraSerif-Roman-48"/>
      <use x="87.20703125" xlink:href="#BitstreamVeraSerif-Roman-6f"/>
      <use x="147.412109375" xlink:href="#BitstreamVeraSerif-Roman-7a"/>
      <use x="200.09765625" xlink:href="#BitstreamVeraSerif-Roman-20"/>
      <use x="231.884765625" xlink:href="#BitstreamVeraSerif-Roman-30"/>
      <use x="295.5078125" xlink:href="#BitstreamVeraSerif-Roman-2e"/>
      <use x="327.294921875" xlink:href="#BitstreamVeraSerif-Roman-33"/>
      <use x="390.91796875" xlink:href="#BitstreamVeraSerif-Roman-34"/>
      <use x="454.541015625" xlink:href="#BitstreamVeraSerif-Roman-63"/>
      <use x="510.546875" xlink:href="#BitstreamVeraSerif-Roman-6d"/>
     </g>
    </g>
   </g>
  </g>
 </g>
 <defs>
  <clipPath id="p09b6b49f9f">
   <rect height="345.6" width="446.4" x="72.0" y="43.2"/>
  </clipPath>
 </defs>
</svg>
